<svg width="57" height="11" viewBox="0 0 57 11" fill="none" xmlns="http://www.w3.org/2000/svg">
<g id="Powered By">
<path id="Vector" d="M52.2657 10.8012L53.36 7.82715L53.3757 8.70679L50.9043 2.63306H51.8834L53.8207 7.51822H53.4856L55.3025 2.63306H56.2502L53.1715 10.8012H52.2657Z" fill="#0E1216"/>
<path id="Vector_2" d="M44.9966 8.28798V0.748169H47.934C48.3843 0.748169 48.7682 0.840671 49.0859 1.02568C49.407 1.21068 49.6514 1.45503 49.8189 1.75871C49.99 2.05891 50.0755 2.38354 50.0755 2.7326C50.0755 3.14101 49.9708 3.4988 49.7613 3.80598C49.5519 4.11316 49.2691 4.32434 48.9131 4.43953L48.9026 4.18297C49.3878 4.31212 49.7648 4.54949 50.0336 4.89506C50.3024 5.24064 50.4368 5.65254 50.4368 6.13075C50.4368 6.57058 50.346 6.95106 50.1645 7.2722C49.9865 7.59334 49.7282 7.84292 49.3896 8.02094C49.0545 8.19897 48.6565 8.28798 48.1958 8.28798H44.9966ZM45.9391 7.39786H48.0177C48.297 7.39786 48.5466 7.34725 48.7665 7.24602C48.9864 7.1413 49.1592 6.99469 49.2848 6.8062C49.414 6.6177 49.4786 6.39081 49.4786 6.12552C49.4786 5.8707 49.421 5.64206 49.3058 5.43961C49.1941 5.23715 49.0353 5.07658 48.8293 4.9579C48.6269 4.83572 48.3912 4.77464 48.1225 4.77464H45.9391V7.39786ZM45.9391 3.89499H47.9235C48.1469 3.89499 48.3476 3.84787 48.5256 3.75362C48.7071 3.65588 48.8503 3.51975 48.955 3.34521C49.0632 3.17068 49.1173 2.96648 49.1173 2.7326C49.1173 2.40797 49.0073 2.14268 48.7874 1.93674C48.5675 1.73079 48.2795 1.62781 47.9235 1.62781H45.9391V3.89499Z" fill="#0E1216"/>
<path id="Vector_3" d="M38.8311 8.44506C38.304 8.44506 37.852 8.31416 37.475 8.05236C37.098 7.78707 36.8065 7.42928 36.6006 6.97898C36.3981 6.52869 36.2969 6.0208 36.2969 5.45531C36.2969 4.88983 36.3981 4.38194 36.6006 3.93164C36.8065 3.48135 37.098 3.12705 37.475 2.86874C37.852 2.60694 38.3023 2.47604 38.8259 2.47604C39.3599 2.47604 39.8085 2.6052 40.1715 2.8635C40.5345 3.12181 40.8085 3.47611 40.9935 3.92641C41.182 4.3767 41.2763 4.88634 41.2763 5.45531C41.2763 6.01731 41.182 6.5252 40.9935 6.97898C40.8085 7.42928 40.5345 7.78707 40.1715 8.05236C39.8085 8.31416 39.3617 8.44506 38.8311 8.44506ZM38.9463 7.59159C39.3268 7.59159 39.6392 7.50083 39.8835 7.31932C40.1279 7.13432 40.3076 6.88125 40.4228 6.56011C40.5415 6.23547 40.6009 5.86721 40.6009 5.45531C40.6009 5.03643 40.5415 4.66817 40.4228 4.35052C40.3076 4.02938 40.1296 3.7798 39.8888 3.60178C39.6479 3.42026 39.3425 3.32951 38.9725 3.32951C38.5885 3.32951 38.2708 3.42375 38.0195 3.61225C37.7717 3.80074 37.5867 4.05556 37.4645 4.3767C37.3458 4.69784 37.2865 5.05738 37.2865 5.45531C37.2865 5.85674 37.3476 6.21977 37.4697 6.5444C37.5919 6.86554 37.7752 7.12035 38.0195 7.30885C38.2673 7.49734 38.5763 7.59159 38.9463 7.59159ZM40.6009 8.28798V4.12538H40.4961V0.748169H41.4334V8.28798H40.6009Z" fill="#0E1216"/>
<path id="Vector_4" d="M32.8745 8.44509C32.3194 8.44509 31.8342 8.32292 31.4189 8.07857C31.007 7.83073 30.6858 7.48691 30.4554 7.04708C30.2251 6.60377 30.1099 6.08715 30.1099 5.49723C30.1099 4.87939 30.2233 4.34532 30.4502 3.89502C30.6771 3.44124 30.993 3.09217 31.3979 2.84783C31.8063 2.59999 32.2845 2.47607 32.8326 2.47607C33.4015 2.47607 33.885 2.60697 34.2829 2.86877C34.6844 3.13057 34.9846 3.50407 35.1835 3.98927C35.386 4.47447 35.4733 5.05218 35.4453 5.72238H34.5028V5.38728C34.4924 4.69264 34.351 4.17428 34.0787 3.83219C33.8065 3.48662 33.4015 3.31383 32.864 3.31383C32.288 3.31383 31.85 3.49883 31.5498 3.86884C31.2496 4.23885 31.0995 4.76943 31.0995 5.46058C31.0995 6.1273 31.2496 6.64391 31.5498 7.01043C31.85 7.37695 32.2776 7.56021 32.8326 7.56021C33.2061 7.56021 33.5307 7.47469 33.8065 7.30365C34.0822 7.1326 34.2986 6.88651 34.4557 6.56537L35.3511 6.8743C35.1312 7.37346 34.7996 7.76092 34.3562 8.03668C33.9164 8.30895 33.4225 8.44509 32.8745 8.44509ZM30.7853 5.72238V4.97364H34.9636V5.72238H30.7853Z" fill="#0E1216"/>
<path id="Vector_5" d="M26.6196 8.28791V2.63306H27.4522V3.99965L27.316 3.82162C27.3823 3.64709 27.4679 3.48652 27.5726 3.33991C27.6808 3.19331 27.8012 3.07288 27.9339 2.97863C28.0805 2.85995 28.2463 2.76919 28.4313 2.70636C28.6163 2.64353 28.8048 2.60688 28.9968 2.59641C29.1888 2.58244 29.3685 2.59466 29.5361 2.63306V3.50747C29.3406 3.45511 29.1259 3.44114 28.892 3.46558C28.6582 3.49001 28.4417 3.57553 28.2428 3.72214C28.0613 3.85129 27.9199 4.00837 27.8187 4.19338C27.7209 4.37838 27.6529 4.5791 27.6145 4.79552C27.5761 5.00845 27.5569 5.22661 27.5569 5.45001V8.28791H26.6196Z" fill="#0E1216"/>
<path id="Vector_6" d="M22.8832 8.44509C22.3282 8.44509 21.843 8.32292 21.4276 8.07857C21.0157 7.83073 20.6946 7.48691 20.4642 7.04708C20.2338 6.60377 20.1187 6.08715 20.1187 5.49723C20.1187 4.87939 20.2321 4.34532 20.459 3.89502C20.6859 3.44124 21.0018 3.09217 21.4067 2.84783C21.8151 2.59999 22.2933 2.47607 22.8414 2.47607C23.4103 2.47607 23.8938 2.60697 24.2917 2.86877C24.6932 3.13057 24.9933 3.50407 25.1923 3.98927C25.3948 4.47447 25.482 5.05218 25.4541 5.72238H24.5116V5.38728C24.5012 4.69264 24.3598 4.17428 24.0875 3.83219C23.8153 3.48662 23.4103 3.31383 22.8728 3.31383C22.2968 3.31383 21.8587 3.49883 21.5585 3.86884C21.2583 4.23885 21.1083 4.76943 21.1083 5.46058C21.1083 6.1273 21.2583 6.64391 21.5585 7.01043C21.8587 7.37695 22.2863 7.56021 22.8414 7.56021C23.2149 7.56021 23.5395 7.47469 23.8153 7.30365C24.091 7.1326 24.3074 6.88651 24.4645 6.56537L25.3599 6.8743C25.14 7.37346 24.8083 7.76092 24.365 8.03668C23.9252 8.30895 23.4313 8.44509 22.8832 8.44509ZM20.7941 5.72238V4.97364H24.9724V5.72238H20.7941Z" fill="#0E1216"/>
<path id="Vector_7" d="M13.6805 8.28802L11.9526 2.62793L12.8794 2.63317L14.1413 6.76959L15.4136 2.63317H16.2357L17.5028 6.76959L18.7699 2.63317H19.6914L17.9635 8.28802H17.1886L15.822 3.98928L14.4554 8.28802H13.6805Z" fill="#0E1216"/>
<path id="Vector_8" d="M8.80035 8.44509C8.23835 8.44509 7.75315 8.31768 7.34474 8.06286C6.93983 7.80805 6.62741 7.45549 6.4075 7.0052C6.18759 6.5549 6.07764 6.03828 6.07764 5.45535C6.07764 4.86193 6.18934 4.34183 6.41274 3.89502C6.63614 3.44822 6.95205 3.1009 7.36045 2.85306C7.76886 2.60174 8.24882 2.47607 8.80035 2.47607C9.36583 2.47607 9.85278 2.60348 10.2612 2.8583C10.6696 3.10963 10.982 3.46044 11.1984 3.91073C11.4183 4.35754 11.5283 4.87241 11.5283 5.45535C11.5283 6.04527 11.4183 6.56537 11.1984 7.01567C10.9785 7.46247 10.6644 7.81328 10.2559 8.0681C9.84754 8.31943 9.36234 8.44509 8.80035 8.44509ZM8.80035 7.56021C9.38678 7.56021 9.82311 7.36473 10.1093 6.97378C10.3956 6.58283 10.5387 6.07668 10.5387 5.45535C10.5387 4.81656 10.3938 4.30867 10.1041 3.93168C9.81438 3.55119 9.37979 3.36095 8.80035 3.36095C8.4059 3.36095 8.08127 3.44997 7.82645 3.62799C7.57164 3.80601 7.3814 4.0521 7.25573 4.36626C7.13007 4.68042 7.06724 5.04345 7.06724 5.45535C7.06724 6.09064 7.21384 6.60028 7.50706 6.98425C7.80027 7.36822 8.23137 7.56021 8.80035 7.56021Z" fill="#0E1216"/>
<path id="Vector_9" d="M0 8.28798V0.748169H2.97927C3.05258 0.748169 3.13984 0.751659 3.24107 0.758641C3.3423 0.762132 3.44004 0.772604 3.53429 0.790057C3.94269 0.852889 4.28478 0.992514 4.56054 1.20893C4.83979 1.42536 5.04923 1.69937 5.18885 2.03098C5.32848 2.3591 5.39829 2.72388 5.39829 3.1253C5.39829 3.52324 5.32674 3.88801 5.18362 4.21962C5.04399 4.54774 4.83455 4.82176 4.5553 5.04167C4.27954 5.25809 3.9392 5.39772 3.53429 5.46055C3.44004 5.47451 3.3423 5.48498 3.24107 5.49196C3.13984 5.49895 3.05258 5.50244 2.97927 5.50244H0.932004V8.28798H0ZM0.932004 4.61756H2.94786C3.01418 4.61756 3.08923 4.61407 3.173 4.60708C3.26027 4.6001 3.3423 4.58789 3.41909 4.57043C3.65995 4.51458 3.85543 4.41335 4.00552 4.26675C4.15911 4.11665 4.27081 3.94212 4.34063 3.74315C4.41044 3.54069 4.44535 3.33474 4.44535 3.1253C4.44535 2.91586 4.41044 2.71166 4.34063 2.51269C4.27081 2.31024 4.15911 2.13396 4.00552 1.98386C3.85543 1.83376 3.65995 1.73253 3.41909 1.68017C3.3423 1.65923 3.26027 1.64701 3.173 1.64352C3.08923 1.63654 3.01418 1.63305 2.94786 1.63305H0.932004V4.61756Z" fill="#0E1216"/>
</g>
</svg>
